<?xml version="1.0" encoding="iso-8859-1"?>
<!-- Generator: Adobe Illustrator 19.0.0, SVG Export Plug-In . SVG Version: 6.00 Build 0)  -->
<svg version="1.1" id="Layer_1" xmlns="http://www.w3.org/2000/svg" xmlns:xlink="http://www.w3.org/1999/xlink" x="0px" y="0px"
	 viewBox="0 0 300 300" style="enable-background:new 0 0 300 300;" xml:space="preserve">
<path id="XMLID_841_" d="M299.209,126.635c0-7.391-5.992-13.382-13.383-13.382v-0.001h-13.453v0.001
	c-8.595,0.011-17.44-0.289-21.199-3.698c-5.313-4.912-6.113-13.732-7.719-25.66c-3.006-23.154-4.91-24.357-8.52-32.175
	C221.805,23.855,186.223,2.906,161.766,0H95.512C43.389,0,0.791,42.699,0.791,94.821v110.558C0.791,257.4,43.389,300,95.512,300
	h108.853c52.121,0,94.42-42.6,94.721-94.622C299.086,205.378,299.209,126.831,299.209,126.635z M96.715,77.48h52.521
	c10.023,0,18.143,8.12,18.143,18.042c0,9.924-8.119,18.143-18.143,18.143H96.715c-10.025,0-18.145-8.218-18.145-18.143
	C78.57,85.6,86.689,77.48,96.715,77.48z M203.463,222.018H96.715c-10.025,0-18.145-8.219-18.145-18.041
	c0-9.924,8.119-18.043,18.145-18.043h106.748c9.924,0,18.043,8.119,18.043,18.043C221.506,213.798,213.387,222.018,203.463,222.018z
	"/>
<g>
</g>
<g>
</g>
<g>
</g>
<g>
</g>
<g>
</g>
<g>
</g>
<g>
</g>
<g>
</g>
<g>
</g>
<g>
</g>
<g>
</g>
<g>
</g>
<g>
</g>
<g>
</g>
<g>
</g>
</svg>
